<svg id="room-m1" viewBox="0 0 360 380" fill="none" xmlns="http://www.w3.org/2000/svg">
  <g id="layer-1">
    <rect width="360" height="380" fill="#4C1D95"></rect>
    <rect x="0" y="0" width="360" height="230" fill="#EDE9FE"></rect>
    <rect x="0" y="230" width="360" height="150" fill="#4C1D95"></rect>
    <rect x="0" y="230" width="360" height="10" fill="#3B0764"></rect>
  </g>
  <g id="layer-2">
    
    <rect x="8" y="0" width="20" height="160" rx="10" fill="#FB923C" stroke="#7C2D12" stroke-width="4"></rect>
    <circle cx="18" cy="22" r="8" fill="#FED7AA" stroke="#7C2D12" stroke-width="3"></circle>
    <circle cx="18" cy="62" r="6" fill="#EA580C" stroke="#7C2D12" stroke-width="3"></circle>
    <circle cx="18" cy="102" r="6" fill="#EA580C" stroke="#7C2D12" stroke-width="3"></circle>
    <rect x="28" y="92" width="36" height="10" rx="5" fill="#FB923C" stroke="#7C2D12" stroke-width="3"></rect>
    
    <rect x="332" y="0" width="20" height="160" rx="10" fill="#FB923C" stroke="#7C2D12" stroke-width="4"></rect>
    <circle cx="342" cy="22" r="8" fill="#FED7AA" stroke="#7C2D12" stroke-width="3"></circle>
    <circle cx="342" cy="62" r="6" fill="#EA580C" stroke="#7C2D12" stroke-width="3"></circle>
    <circle cx="342" cy="102" r="6" fill="#EA580C" stroke="#7C2D12" stroke-width="3"></circle>
    <rect x="296" y="92" width="36" height="10" rx="5" fill="#FB923C" stroke="#7C2D12" stroke-width="3"></rect>
    
    <rect x="32" y="12" width="296" height="10" rx="5" fill="#6D28D9" stroke="#3B0764" stroke-width="3"></rect>
    
    <rect x="32" y="20" width="100" height="72" rx="9" fill="#6D28D9" stroke="#3B0764" stroke-width="4"></rect>
    <rect x="40" y="28" width="84" height="54" rx="6" fill="#1E1033"></rect>
    <polyline id="wave-m1" points="46,72 52,56 58,66 64,44 70,60 76,50 82,64 88,46 94,58 100,54 106,68 112,62 118,70" fill="none" stroke="#A78BFA" stroke-width="2.5" stroke-linecap="round" stroke-linejoin="round"></polyline>
    <rect x="46" y="34" width="36" height="5" rx="2" fill="#C4B5FD" opacity="0.5"></rect>
    
    <rect x="130" y="20" width="100" height="72" rx="9" fill="#6D28D9" stroke="#3B0764" stroke-width="4"></rect>
    <rect x="138" y="28" width="84" height="54" rx="6" fill="#1E1033"></rect>
    <rect x="144" y="36" width="72" height="9" rx="4" fill="#2e1065"></rect>
    <rect id="prog-m1-2a" x="144" y="36" width="54" height="9" rx="4" fill="#C4B5FD"></rect>
    <rect x="144" y="49" width="72" height="9" rx="4" fill="#2e1065"></rect>
    <rect id="prog-m1-2b" x="144" y="49" width="30" height="9" rx="4" fill="#A78BFA"></rect>
    <rect x="144" y="62" width="72" height="9" rx="4" fill="#2e1065"></rect>
    <rect id="prog-m1-2c" x="144" y="62" width="60" height="9" rx="4" fill="#C4B5FD"></rect>
    
    <rect x="228" y="20" width="100" height="72" rx="9" fill="#6D28D9" stroke="#3B0764" stroke-width="4"></rect>
    <rect x="236" y="28" width="84" height="54" rx="6" fill="#1E1033"></rect>
    <rect x="242" y="36" width="72" height="9" rx="4" fill="#2e1065"></rect>
    <rect id="prog-m1-3a" x="242" y="36" width="42" height="9" rx="4" fill="#A78BFA"></rect>
    <rect x="242" y="49" width="72" height="9" rx="4" fill="#2e1065"></rect>
    <rect id="prog-m1-3b" x="242" y="49" width="66" height="9" rx="4" fill="#C4B5FD"></rect>
    <rect x="242" y="62" width="72" height="9" rx="4" fill="#2e1065"></rect>
    <rect id="prog-m1-3c" x="242" y="62" width="28" height="9" rx="4" fill="#A78BFA"></rect>
  </g>
  <g id="layer-3">
    
    <rect x="96" y="108" width="168" height="30" rx="12" fill="#6D28D9" stroke="#3B0764" stroke-width="4"></rect>
    <circle id="btn-m1-1" cx="118" cy="123" r="9" fill="#FF4444" stroke="#3B0764" stroke-width="3"></circle>
    <circle id="btn-m1-2" cx="142" cy="123" r="9" fill="#FDE68A" stroke="#3B0764" stroke-width="3"></circle>
    <circle id="btn-m1-3" cx="166" cy="123" r="9" fill="#C4B5FD" stroke="#3B0764" stroke-width="3"></circle>
    <circle id="btn-m1-4" cx="190" cy="123" r="9" fill="#FB923C" stroke="#3B0764" stroke-width="3"></circle>
    <circle id="btn-m1-5" cx="214" cy="123" r="9" fill="#F9A8D4" stroke="#3B0764" stroke-width="3"></circle>
    <circle id="btn-m1-6" cx="238" cy="123" r="9" fill="#A78BFA" stroke="#3B0764" stroke-width="3"></circle>
    
    <rect x="14" y="178" width="332" height="50" rx="14" fill="#92400E" stroke="#111" stroke-width="5"></rect>
    <rect x="14" y="178" width="332" height="12" rx="14" fill="#78350F" stroke="#111" stroke-width="3"></rect>
    <line x1="60" y1="180" x2="58" y2="226" stroke="#78350F" stroke-width="1.5" opacity="0.5"></line>
    <line x1="120" y1="180" x2="122" y2="226" stroke="#78350F" stroke-width="1.5" opacity="0.5"></line>
    <line x1="200" y1="180" x2="200" y2="226" stroke="#78350F" stroke-width="1.5" opacity="0.5"></line>
    <line x1="280" y1="180" x2="278" y2="226" stroke="#78350F" stroke-width="1.5" opacity="0.5"></line>
    <rect x="32" y="226" width="20" height="62" rx="10" fill="#78350F" stroke="#111" stroke-width="4"></rect>
    <rect x="308" y="226" width="20" height="62" rx="10" fill="#78350F" stroke="#111" stroke-width="4"></rect>
    
    <rect x="48" y="188" width="44" height="12" rx="6" fill="#FB923C" stroke="#111" stroke-width="3"></rect>
    <circle cx="48" cy="194" r="9" fill="#FB923C" stroke="#111" stroke-width="3"></circle>
    
    <rect x="136" y="186" width="120" height="28" rx="7" fill="#1E1033" stroke="#3B0764" stroke-width="3"></rect>
    <rect x="142" y="192" width="108" height="6" rx="3" fill="#6D28D9" opacity="0.6"></rect>
    <rect x="142" y="201" width="108" height="6" rx="3" fill="#6D28D9" opacity="0.5"></rect>
    
    <path d="M306 226 L310 196 L326 196 L330 226 Z" fill="#F5E6D3" stroke="#111" stroke-width="2.5" stroke-linejoin="round"></path>
    <path d="M307 218 L310 206 L326 206 L329 218 Z" fill="#8B4513"></path>
    <ellipse cx="318" cy="196" rx="10" ry="4" fill="#D4C5B0" stroke="#111" stroke-width="2"></ellipse>
    <path d="M308 196 Q318 190 328 196" fill="#D4C5B0" stroke="#111" stroke-width="2"></path>
    <path id="steam-m1-1" d="M314 188 Q316 183 314 178" stroke="#EDE9FE" stroke-width="2" stroke-linecap="round" fill="none"></path>
    <path id="steam-m1-2" d="M320 186 Q322 181 320 176" stroke="#EDE9FE" stroke-width="2" stroke-linecap="round" fill="none"></path>
    
    <rect x="56" y="262" width="18" height="32" rx="5" fill="#C8102E" stroke="#111" stroke-width="2.5"></rect>
    <rect x="56" y="262" width="18" height="7" rx="5" fill="#E8E8E8" stroke="#111" stroke-width="2"></rect>
    <rect x="58" y="271" width="14" height="3" rx="1" fill="#FFD700"></rect>
    <rect x="58" y="276" width="14" height="3" rx="1" fill="#FFD700"></rect>
    <rect x="78" y="266" width="18" height="32" rx="5" fill="#C8102E" stroke="#111" stroke-width="2.5"></rect>
    <rect x="78" y="266" width="18" height="7" rx="5" fill="#E8E8E8" stroke="#111" stroke-width="2"></rect>
    <rect x="80" y="275" width="14" height="3" rx="1" fill="#FFD700"></rect>
    <rect x="80" y="280" width="14" height="3" rx="1" fill="#FFD700"></rect>
  </g>
  <g id="light-m1">
    <circle id="lamp-m1" cx="180" cy="8" r="7" fill="#FDE68A" stroke="#6D28D9" stroke-width="2"></circle>
  </g>
  <circle id="status-m1" cx="344" cy="18" r="11" fill="#C4B5FD" stroke="#3B0764" stroke-width="4"></circle>
  <rect id="slot-m1" x="148" y="175" width="64" height="6" rx="3" fill="#3B0764" opacity="0"></rect>
  <rect id="msg-m1" x="154" y="156" width="52" height="14" rx="5" fill="#A78BFA" opacity="0"></rect>
  
  <g id="agent-worker">
    <ellipse id="chair-m1" cx="180" cy="368" rx="48" ry="14" fill="#3B0764" stroke="#111" stroke-width="4"></ellipse>
    <ellipse cx="180" cy="340" rx="36" ry="38" fill="#7A4A1A" stroke="#111" stroke-width="5"></ellipse>
    <path d="M180 304 C170 304 154 308 148 318 C142 328 144 346 146 358 C154 362 166 364 180 364 Z" fill="#8B5520" stroke="#111" stroke-width="3"></path>
    <path d="M180 304 C190 304 206 308 212 318 C218 328 216 346 214 358 C206 362 194 364 180 364 Z" fill="#8B5520" stroke="#111" stroke-width="3"></path>
    <line x1="180" y1="304" x2="180" y2="364" stroke="#111" stroke-width="3" stroke-linecap="round"></line>
    <path d="M180 304 C174 300 163 302 159 310" stroke="#111" stroke-width="3" stroke-linecap="round" fill="none"></path>
    <path d="M180 304 C186 300 197 302 201 310" stroke="#111" stroke-width="3" stroke-linecap="round" fill="none"></path>
    <path id="arm-m1-l" d="M146 336C132 330 120 322 108 319" stroke="#111" stroke-width="13" stroke-linecap="round"></path>
    <circle id="hand-m1-l" cx="104" cy="318" r="12" fill="#FFDAB8" stroke="#111" stroke-width="4"></circle>
    <path id="arm-m1-r" d="M214 336C228 330 240 322 252 319" stroke="#111" stroke-width="13" stroke-linecap="round"></path>
    <circle id="hand-m1-r" cx="256" cy="318" r="12" fill="#FFDAB8" stroke="#111" stroke-width="4"></circle>
    <ellipse id="head-m1" cx="180" cy="278" rx="44" ry="54" fill="#FFDAB8" stroke="#111" stroke-width="5"></ellipse>
    <path id="hat-crown-m1" d="M138 280 C134 266 136 242 145 229 C155 217 168 210 180 210 C192 210 205 217 215 229 C224 242 226 266 222 280 Z" fill="#7A4A1A" stroke="#111" stroke-width="5" stroke-linejoin="round"></path>
    <rect id="hat-cuff-m1" x="130" y="272" width="100" height="24" rx="12" fill="#5C3210" stroke="#111" stroke-width="4"></rect>
    <rect x="162" y="276" width="36" height="16" rx="3" fill="#F5F0E8" stroke="#111" stroke-width="2"></rect>
    <rect x="166" y="279" width="28" height="10" rx="2" fill="#C8860A"></rect>
    <ellipse id="eye-m1-l" cx="162" cy="296" rx="16" ry="17" fill="white" stroke="#111" stroke-width="3"></ellipse>
    <ellipse cx="160" cy="294" rx="11" ry="11" fill="#7C3AED"></ellipse>
    <ellipse cx="160" cy="294" rx="6" ry="6" fill="#111"></ellipse>
    <circle cx="155" cy="290" r="4" fill="white"></circle>
    <circle cx="163" cy="298" r="2" fill="white"></circle>
    <path d="M147 287C153 282 162 283 167 287" stroke="#111" stroke-width="3.5" stroke-linecap="round" fill="none"></path>
    <ellipse id="eye-m1-r" cx="198" cy="296" rx="16" ry="17" fill="white" stroke="#111" stroke-width="3"></ellipse>
    <ellipse cx="200" cy="294" rx="11" ry="11" fill="#7C3AED"></ellipse>
    <ellipse cx="200" cy="294" rx="6" ry="6" fill="#111"></ellipse>
    <circle cx="195" cy="290" r="4" fill="white"></circle>
    <circle cx="203" cy="298" r="2" fill="white"></circle>
    <path d="M193 287C197 283 206 282 212 287" stroke="#111" stroke-width="3.5" stroke-linecap="round" fill="none"></path>
    <ellipse id="mouth-m1" cx="180" cy="316" rx="9" ry="11" fill="#111"></ellipse>
    <ellipse cx="180" cy="316" rx="7" ry="8.5" fill="#c0605a"></ellipse>
  </g>
  <g id="activity-m1">
    <circle id="activity-m1-1" cx="118" cy="123" r="4" fill="#C4B5FD" opacity="0.4"></circle>
    <circle id="activity-m1-2" cx="138" cy="123" r="4" fill="#C4B5FD" opacity="0.4"></circle>
  </g>
</svg>